{"glyphs":{":":{"x_min":0,"x_max":323,"ha":323,"o":"m 162 496 q 201 496 229 468 q 256 440 256 401 q 256 361 229 333 q 201 306 162 306 q 122 306 94 333 q 66 361 66 401 q 66 440 94 468 q 122 496 162 496 z m 162 177 q 201 177 229 149 q 256 121 256 82 q 256 42 229 15 q 201 -13 162 -13 q 122 -13 94 15 q 66 42 66 82 q 66 121 94 149 q 122 177 162 177 z"},"$":{"x_min":0,"x_max":575,"ha":575,"o":"m 261 730 l 302 730 l 302 667 q 365 663 408 642 q 446 624 468 594 q 489 565 489 530 q 489 497 468 476 q 446 456 412 456 q 381 456 361 476 q 340 496 340 526 q 340 547 351 564 l 361 581 q 366 588 365 592 q 364 602 345 609 q 326 617 302 617 l 302 481 l 261 503 l 261 613 q 241 609 229 599 q 202 578 202 544 q 202 508 238 481 q 262 463 340 427 q 396 401 421 385 q 446 370 465 349 q 488 325 500 288 q 513 252 513 210 q 513 159 492 116 q 472 73 433 44 q 384 8 302 0 l 302 -74 l 261 -74 l 261 0 q 194 3 146 28 q 106 48 84 80 q 62 112 62 149 q 62 185 85 209 q 108 234 143 234 q 174 234 196 211 q 218 188 218 156 q 218 137 208 119 q 199 101 183 93 q 171 86 171 82 q 172 77 183 70 q 193 63 209 58 q 236 48 261 48 l 261 201 l 302 182 l 302 49 q 330 51 348 62 q 367 73 378 91 q 390 109 390 129 q 390 150 380 166 q 371 181 351 196 q 339 204 323 212 q 306 221 259 244 q 201 271 171 291 q 142 310 122 335 q 79 388 79 460 q 79 515 105 562 q 132 608 178 636 q 215 659 261 666 z"},"?":{"x_min":0,"x_max":540,"ha":540,"o":"m 252 680 l 252 626 q 238 624 233 620 q 229 616 229 607 q 229 599 231 592 l 235 581 q 239 570 239 558 q 239 524 215 502 q 190 479 155 479 q 118 479 93 504 q 67 528 67 563 q 67 613 120 647 q 143 663 175 671 q 208 680 240 680 z m 293 623 l 293 678 q 338 672 373 652 q 419 625 446 580 q 473 535 473 482 q 473 446 460 410 q 446 375 422 347 q 395 316 354 297 q 312 277 263 271 q 240 268 234 262 q 228 257 228 238 q 228 222 222 215 q 216 208 204 208 q 178 208 178 237 l 178 409 q 178 419 179 422 q 180 425 184 427 q 191 431 208 431 q 253 431 287 460 q 323 493 323 550 q 323 576 316 593 q 309 610 293 623 z m 215 177 q 254 177 282 149 q 310 121 310 82 q 310 42 282 15 q 254 -13 215 -13 q 175 -13 147 15 q 120 42 120 82 q 120 121 147 149 q 175 177 215 177 z"},"<":{"x_min":0,"x_max":423,"ha":423,"o":"m 423 639 l 423 570 l 186 421 l 423 258 l 423 76 l 0 366 l 0 375 z"},"'":{"x_min":0,"x_max":224,"ha":224,"o":"m 159 399 l 65 399 l 41 667 l 183 667 z"},"=":{"x_min":0,"x_max":575,"ha":575,"o":"m 537 467 l 537 402 q 537 391 533 387 q 528 382 517 382 l 58 382 q 46 382 42 387 q 38 391 38 402 l 38 467 q 38 479 42 483 q 46 487 58 487 l 517 487 q 528 487 533 483 q 537 479 537 467 z m 537 266 l 537 201 q 537 189 533 185 q 528 181 517 181 l 58 181 q 46 181 42 185 q 38 189 38 201 l 38 266 q 38 277 42 281 q 46 286 58 286 l 517 286 q 528 286 533 281 q 537 277 537 266 z"},"a":{"x_min":0,"x_max":619,"ha":619,"o":"m 236 667 l 433 667 l 568 93 q 572 78 577 66 q 582 57 597 51 q 609 45 614 40 q 619 35 619 25 q 619 0 581 0 l 337 0 q 323 0 314 7 q 305 14 305 26 q 305 36 309 41 q 313 45 327 53 q 336 58 340 63 q 344 69 344 78 q 344 86 343 93 l 327 164 l 191 164 l 204 222 l 313 222 l 224 619 z m 202 542 l 227 441 l 141 126 q 137 112 137 101 q 137 70 166 57 l 183 49 q 199 42 199 24 q 199 0 163 0 l 39 0 q 21 0 10 8 q 0 15 0 28 q 0 42 21 52 q 42 61 51 68 q 61 75 69 87 q 83 107 92 140 z"},"L":{"x_min":0,"x_max":533,"ha":533,"o":"m 307 0 l 89 0 l 77 0 q 59 0 50 7 q 40 13 40 25 q 40 45 60 52 q 76 57 78 58 q 81 60 84 64 q 90 72 90 89 l 90 578 q 90 595 84 603 q 81 607 78 608 q 76 609 60 615 q 40 621 40 641 q 40 653 50 660 q 59 667 77 667 l 89 667 l 307 667 l 324 667 q 345 667 354 661 q 367 653 367 640 q 367 619 344 613 q 325 609 321 607 q 318 606 314 602 q 307 593 307 574 z m 346 0 l 346 55 q 370 59 384 64 q 398 70 411 80 q 431 96 448 125 q 465 153 476 188 q 484 214 490 223 q 497 231 510 231 q 523 231 530 220 q 533 215 533 199 l 533 0 z"},"3":{"x_min":0,"x_max":575,"ha":575,"o":"m 228 672 l 228 623 q 208 619 200 614 q 195 611 191 606 q 188 601 188 598 q 188 590 198 582 l 220 564 q 236 551 236 518 q 236 482 211 457 q 185 431 149 431 q 113 431 88 457 q 64 483 64 522 q 64 555 81 585 q 99 615 130 636 q 166 661 228 672 z m 375 341 q 417 328 438 318 q 459 308 475 293 q 497 273 509 243 q 522 212 522 179 q 522 103 470 54 q 438 23 393 8 q 347 -8 292 -8 l 271 -8 l 271 43 q 298 51 311 66 q 318 75 321 85 q 324 95 324 112 l 324 252 q 324 272 322 282 q 320 291 313 300 q 299 318 270 319 q 250 320 244 324 q 233 331 233 345 q 233 358 241 364 q 249 369 270 371 q 324 376 324 426 l 324 445 l 324 556 q 324 586 312 601 q 300 616 271 623 l 271 675 l 285 675 q 332 675 375 662 q 418 648 449 625 q 479 602 495 571 q 511 539 511 503 q 511 438 470 394 q 452 375 431 364 q 411 353 375 341 z m 228 43 l 228 -8 q 173 -1 135 16 q 91 36 67 68 q 42 101 42 141 q 42 182 69 209 q 95 237 134 237 q 177 237 206 203 q 226 178 226 150 q 226 130 215 111 q 205 92 188 80 q 172 69 172 63 q 172 55 189 49 q 206 43 228 43 z"},";":{"x_min":0,"x_max":334,"ha":334,"o":"m 166 175 q 208 175 237 143 q 251 127 260 106 q 268 84 268 62 q 268 16 238 -32 q 208 -80 157 -113 q 114 -141 89 -141 q 80 -141 73 -135 q 67 -129 67 -120 q 67 -105 85 -95 q 130 -72 150 -50 q 170 -29 170 -19 q 170 -10 155 -8 l 149 -7 l 142 -6 q 110 -1 90 23 q 70 48 70 83 q 70 119 95 146 q 123 175 166 175 z m 170 496 q 209 496 237 468 q 265 440 265 401 q 265 361 237 333 q 209 306 170 306 q 130 306 103 333 q 75 361 75 401 q 75 440 103 468 q 130 496 170 496 z"},"J":{"x_min":0,"x_max":536,"ha":536,"o":"m 243 112 l 243 574 q 243 604 226 608 l 207 613 q 183 619 183 640 q 183 653 194 659 q 205 666 227 666 l 243 667 l 460 667 l 473 667 l 491 665 q 510 660 510 641 q 510 622 490 615 l 475 610 q 460 605 460 578 l 460 169 q 460 80 401 33 q 374 11 331 -1 q 288 -14 240 -14 q 231 -14 211 -13 l 211 44 q 215 46 216 47 q 226 55 230 59 q 234 64 237 71 q 243 87 243 112 z m 167 44 l 167 -10 q 106 0 70 24 q 37 46 18 78 q 0 110 0 146 q 0 191 31 223 q 61 254 104 254 q 144 254 173 226 q 201 197 201 157 q 201 126 180 99 q 166 81 139 69 q 130 65 130 62 q 129 60 134 56 q 139 53 146 50 q 153 47 167 44 z"},"V":{"x_min":0,"x_max":604,"ha":604,"o":"m 405 171 l 359 0 l 230 0 l 57 583 q 53 597 49 601 q 46 606 39 609 q 23 616 18 621 q 13 626 13 637 q 13 652 26 660 q 37 667 60 667 l 277 667 q 298 667 305 666 q 313 665 318 662 q 323 658 326 652 q 330 646 330 640 q 330 622 312 614 q 300 607 295 601 q 291 594 291 582 q 291 574 292 568 z m 424 241 l 398 333 l 454 538 q 459 558 460 562 q 461 573 455 586 q 447 603 431 608 l 415 614 q 396 621 396 639 q 396 652 406 659 q 417 667 436 667 l 556 667 q 578 667 585 662 q 597 655 597 641 q 597 632 593 626 q 589 621 580 617 l 555 605 q 539 598 525 576 q 510 554 502 526 z"},"\"":{"x_min":0,"x_max":410,"ha":410,"o":"m 159 399 l 65 399 l 41 667 l 183 667 z m 345 399 l 251 399 l 227 667 l 370 667 z"},"7":{"x_min":0,"x_max":574,"ha":574,"o":"m 66 454 l 97 662 l 133 662 l 126 605 q 164 642 197 658 q 230 675 269 675 q 287 675 300 672 q 314 670 340 662 q 380 649 394 644 q 423 633 441 632 q 452 631 463 644 l 469 651 q 477 660 484 660 q 491 660 497 654 q 502 648 502 641 q 502 627 493 603 q 484 579 472 558 q 452 523 423 508 q 393 492 350 492 q 332 492 318 494 q 304 497 240 512 q 178 526 151 526 q 127 526 115 511 q 104 496 104 464 l 104 454 z m 427 471 q 396 409 383 366 q 363 301 363 250 q 363 230 366 212 l 375 158 q 380 132 380 107 q 380 52 346 21 q 314 -8 273 -8 q 227 -8 197 28 q 167 65 167 122 q 167 180 201 243 q 212 263 228 284 q 245 305 282 347 q 321 391 339 414 q 357 437 365 454 q 392 456 427 471 z"},"S":{"x_min":0,"x_max":560,"ha":560,"o":"m 265 680 l 265 624 q 235 615 219 598 q 203 581 203 555 q 203 531 216 512 q 229 494 259 478 q 280 466 352 435 q 396 416 420 400 q 444 385 466 362 q 523 301 523 218 q 523 155 492 103 q 461 50 406 21 q 377 5 342 -4 q 307 -13 277 -13 l 277 42 q 319 53 338 71 q 357 89 357 121 q 357 153 328 178 q 308 194 253 218 q 193 245 171 256 q 149 267 128 282 q 37 348 37 457 q 37 512 60 559 q 83 606 124 635 q 181 675 265 680 z m 304 624 l 304 677 q 333 675 354 670 q 376 664 416 647 q 425 644 432 644 q 441 644 445 650 l 456 664 q 464 675 475 675 q 488 675 494 665 q 500 656 500 635 l 500 474 q 500 460 492 451 q 484 442 472 442 q 462 442 454 448 q 449 452 447 458 q 444 463 441 477 q 436 500 423 526 q 410 551 392 571 q 357 611 304 624 z m 240 42 l 240 -13 q 200 -13 151 10 q 133 18 126 21 q 120 23 113 23 q 104 23 99 20 q 94 17 83 4 q 74 -7 64 -7 q 37 -7 37 35 l 37 213 q 37 227 44 236 q 52 246 64 246 q 75 247 81 240 q 87 233 91 217 q 103 175 124 138 q 145 102 173 76 q 202 50 240 42 z"},"}":{"x_min":0,"x_max":434,"ha":434,"o":"m 243 260 q 203 268 183 277 q 163 285 150 300 q 140 313 137 329 q 134 344 134 397 l 134 524 q 134 557 125 572 q 117 585 105 591 q 93 597 64 603 q 47 606 40 613 q 33 620 33 633 q 33 648 43 657 q 55 667 99 667 l 146 667 q 232 667 265 633 q 287 609 293 568 q 296 549 296 483 l 296 409 l 298 360 q 298 329 311 313 q 319 301 332 296 q 344 291 365 289 q 381 287 388 280 q 395 273 395 260 q 395 247 388 240 q 381 233 365 232 q 344 230 332 225 q 319 219 311 207 q 298 191 298 160 l 296 111 l 296 37 q 296 -28 293 -48 q 287 -89 265 -112 q 249 -129 220 -137 q 192 -145 146 -145 l 79 -145 q 33 -145 33 -111 q 33 -98 40 -91 q 47 -84 64 -81 q 85 -76 94 -73 q 103 -71 110 -65 q 129 -52 132 -31 l 133 -14 l 134 2 l 134 124 q 134 176 137 192 q 140 207 150 221 q 163 235 183 244 q 203 252 243 260 z"},"Z":{"x_min":0,"x_max":523,"ha":523,"o":"m 503 667 l 503 610 l 233 0 l 20 0 l 20 48 l 291 667 z m 37 667 l 249 667 l 224 611 q 183 605 148 581 q 104 549 88 492 q 84 477 78 471 q 72 465 62 465 q 37 465 37 494 z m 503 0 l 275 0 l 297 49 q 357 63 384 82 q 407 98 421 119 q 435 140 451 182 q 457 197 462 203 q 468 208 478 208 q 490 208 497 200 q 503 191 503 174 z"},"x":{"x_min":0,"x_max":608,"ha":608,"o":"m 306 581 l 552 82 q 561 64 576 57 q 589 50 594 44 q 598 38 598 28 q 598 15 588 7 q 580 0 553 0 l 324 0 q 298 0 290 3 q 273 11 273 28 q 273 35 276 39 q 280 44 289 51 q 306 63 305 73 q 305 82 296 98 l 57 581 q 51 593 44 600 q 37 607 26 613 q 16 618 12 624 q 9 630 9 640 q 9 655 19 661 q 30 667 57 667 l 284 667 q 309 667 320 660 q 331 654 331 640 q 331 625 315 615 q 308 609 305 606 q 302 602 302 596 q 302 589 306 581 z m 416 446 l 389 500 l 416 546 q 425 562 425 574 q 425 585 419 595 q 412 605 401 610 l 384 618 q 379 621 376 627 q 372 634 372 641 q 372 653 380 660 q 389 667 402 667 l 543 667 q 557 667 566 660 q 575 654 575 645 q 575 633 566 624 q 563 621 546 612 q 511 593 488 557 z m 186 238 l 212 183 l 182 133 q 166 106 166 90 q 166 66 192 56 q 207 50 212 44 q 217 38 217 28 q 217 14 206 5 q 201 2 196 1 q 190 0 175 0 l 49 0 q 34 0 25 7 q 16 13 16 25 q 16 34 21 40 q 27 46 41 52 q 78 66 98 98 z"},")":{"x_min":0,"x_max":419,"ha":419,"o":"m 96 681 q 109 681 143 652 q 177 622 205 587 q 258 521 293 436 q 328 352 328 262 q 328 171 293 87 q 257 1 205 -64 q 175 -102 142 -130 q 109 -158 94 -158 q 87 -158 78 -149 q 67 -140 67 -130 q 68 -120 77 -103 q 104 -53 119 34 q 130 99 134 146 q 138 194 138 262 q 138 329 134 377 q 130 425 119 490 q 104 575 77 626 q 67 645 67 654 q 67 663 77 672 q 87 681 96 681 z"},"&":{"x_min":0,"x_max":697,"ha":697,"o":"m 429 0 l 206 399 q 196 418 188 453 q 180 488 180 515 q 180 559 205 597 q 230 635 273 658 q 319 681 365 681 q 378 681 401 678 l 401 618 q 386 612 378 601 q 370 590 370 574 q 370 551 382 527 l 619 87 q 627 72 633 65 q 640 59 653 50 q 663 45 667 40 q 671 34 671 26 q 671 13 662 7 q 653 0 636 0 z m 444 618 l 444 672 q 463 669 474 664 q 485 659 497 649 q 519 631 531 606 q 542 582 542 554 q 542 514 518 477 q 502 455 475 437 l 452 482 q 471 501 479 516 q 486 530 486 550 q 486 573 476 589 q 466 605 444 618 z m 581 240 l 556 287 q 570 310 570 333 q 570 352 562 366 l 554 381 q 550 389 550 396 q 550 409 566 418 q 583 427 606 427 q 622 427 631 413 q 640 398 640 373 q 640 336 627 308 q 614 279 581 240 z m 184 368 l 206 322 q 193 305 193 294 q 193 284 206 260 l 295 95 q 299 88 307 81 q 315 74 331 73 q 334 73 336 73 q 339 73 345 71 l 371 25 q 341 7 307 -3 q 273 -13 240 -13 q 132 -13 69 64 q 27 116 27 177 q 27 253 94 314 q 135 352 184 368 z"},"_":{"x_min":0,"x_max":489,"ha":489,"o":"m 0 -95 l 489 -95 l 489 -173 l 0 -173 z"},"v":{"x_min":0,"x_max":604,"ha":604,"o":"m 405 171 l 359 0 l 230 0 l 57 583 q 53 597 49 601 q 46 606 39 609 q 23 616 18 621 q 13 626 13 637 q 13 652 26 660 q 37 667 60 667 l 277 667 q 298 667 305 666 q 313 665 318 662 q 323 658 326 652 q 330 646 330 640 q 330 622 312 614 q 300 607 295 601 q 291 594 291 582 q 291 574 292 568 z m 424 241 l 398 333 l 454 538 q 459 558 460 562 q 461 573 455 586 q 447 603 431 608 l 415 614 q 396 621 396 639 q 396 652 406 659 q 417 667 436 667 l 556 667 q 578 667 585 662 q 597 655 597 641 q 597 632 593 626 q 589 621 580 617 l 555 605 q 539 598 525 576 q 510 554 502 526 z"},"O":{"x_min":0,"x_max":634,"ha":634,"o":"m 297 627 q 272 618 262 603 q 251 588 251 559 l 251 122 q 251 79 263 62 q 272 47 297 41 l 297 -13 q 188 -4 115 68 q 20 163 20 333 q 20 417 45 486 q 70 555 120 603 q 157 639 201 658 q 244 677 297 680 z m 337 627 l 337 680 q 390 677 433 658 q 477 639 515 603 q 614 505 614 333 q 614 163 519 68 q 446 -5 337 -13 l 337 41 q 350 43 357 48 q 364 53 370 62 q 383 82 383 122 l 383 559 q 383 584 374 600 q 368 610 360 616 q 352 622 337 627 z"},"(":{"x_min":0,"x_max":419,"ha":419,"o":"m 324 681 q 333 681 343 671 q 353 662 353 653 q 352 643 343 626 q 316 576 301 489 q 290 424 286 376 q 282 329 282 262 q 282 194 286 147 q 290 99 301 34 q 316 -53 343 -103 q 353 -121 353 -130 q 353 -139 343 -148 q 334 -158 326 -158 q 311 -158 278 -130 q 246 -102 215 -64 q 163 1 126 87 q 92 171 92 262 q 92 352 126 436 q 162 521 215 587 q 243 623 277 652 q 311 681 324 681 z"},"C":{"x_min":0,"x_max":584,"ha":584,"o":"m 309 680 l 309 621 q 280 616 266 595 q 251 574 251 535 l 251 132 l 251 111 q 251 100 256 87 q 261 75 268 66 q 276 56 285 52 q 293 48 309 46 l 309 -13 q 214 -13 144 36 q 83 80 51 153 q 20 227 20 327 q 20 401 40 465 q 61 528 99 575 q 138 623 193 651 q 247 680 297 680 z m 347 620 l 347 679 q 371 675 386 671 q 401 667 440 652 q 465 644 473 644 q 487 644 495 656 l 501 668 q 507 680 523 680 q 536 680 543 672 q 550 664 550 649 l 550 446 q 550 426 542 417 q 533 409 521 409 q 510 409 503 416 q 496 424 491 441 q 481 479 471 501 q 450 548 423 577 q 405 596 387 607 q 369 617 347 620 z m 349 -13 l 349 46 q 387 49 429 75 q 451 89 469 113 q 486 137 495 165 q 500 181 507 187 q 513 194 524 194 q 536 194 543 185 q 551 176 551 163 q 551 141 534 110 q 518 79 491 52 q 459 20 425 4 q 391 -11 349 -13 z"},"W":{"x_min":0,"x_max":821,"ha":821,"o":"m 380 236 l 321 0 l 216 0 l 59 574 q 53 593 49 600 q 44 607 33 611 q 13 619 13 637 q 13 651 25 659 q 38 667 60 667 l 288 667 q 310 667 317 661 q 328 653 328 641 q 328 625 311 615 q 296 607 292 601 q 288 596 288 584 q 288 579 290 574 z m 427 667 l 527 667 l 645 222 l 589 0 l 482 0 l 369 429 z m 663 300 l 638 399 l 673 544 q 678 561 678 570 q 678 585 670 595 q 662 606 643 615 q 631 622 626 627 q 622 633 622 643 q 622 655 630 661 q 638 667 655 667 l 771 667 q 792 667 800 661 q 808 655 808 642 q 808 634 803 629 q 799 624 790 620 q 768 610 757 599 q 735 577 724 534 z"},"A":{"x_min":0,"x_max":619,"ha":619,"o":"m 236 667 l 433 667 l 568 93 q 572 78 577 66 q 582 57 597 51 q 609 45 614 40 q 619 35 619 25 q 619 0 581 0 l 337 0 q 323 0 314 7 q 305 14 305 26 q 305 36 309 41 q 313 45 327 53 q 336 58 340 63 q 344 69 344 78 q 344 86 343 93 l 327 164 l 191 164 l 204 222 l 313 222 l 224 619 z m 202 542 l 227 441 l 141 126 q 137 112 137 101 q 137 70 166 57 l 183 49 q 199 42 199 24 q 199 0 163 0 l 39 0 q 21 0 10 8 q 0 15 0 28 q 0 42 21 52 q 42 61 51 68 q 61 75 69 87 q 83 107 92 140 z"},"f":{"x_min":0,"x_max":566,"ha":566,"o":"m 307 667 l 307 93 q 307 74 314 65 q 318 61 321 59 q 325 58 344 53 q 367 48 367 26 q 367 14 354 6 q 345 0 324 0 l 307 0 l 89 0 l 77 0 q 59 0 50 7 q 40 13 40 25 q 40 45 60 52 q 76 57 78 58 q 81 60 84 64 q 90 72 90 89 l 90 578 q 90 595 84 603 q 81 607 78 608 q 76 609 60 615 q 40 621 40 641 q 40 653 50 660 q 59 667 77 667 l 89 667 z m 350 667 l 546 667 l 546 496 q 546 479 541 472 q 535 465 521 465 q 512 465 506 470 q 500 475 497 487 q 489 511 478 531 q 466 551 451 565 q 431 585 407 595 q 383 605 350 609 z m 347 311 l 347 368 q 376 381 389 397 q 403 413 409 440 q 413 459 419 466 q 426 473 438 473 q 453 473 459 461 q 462 455 462 432 l 462 246 q 462 223 457 214 q 452 206 438 206 q 427 206 421 212 q 415 219 411 235 q 402 269 387 287 q 372 305 347 311 z"},"Q":{"x_min":0,"x_max":640,"ha":640,"o":"m 508 56 q 526 38 556 38 q 573 38 587 44 q 599 49 604 49 q 610 49 615 43 q 620 36 620 28 q 620 13 597 -4 q 555 -34 510 -34 q 452 -34 417 2 q 384 -10 340 -14 l 340 41 q 351 43 356 46 q 361 48 367 55 l 363 59 q 350 75 342 81 q 333 87 322 89 q 307 92 302 94 q 298 95 295 100 q 291 105 291 114 q 291 127 302 135 q 314 143 334 143 q 350 143 362 140 q 373 137 386 130 l 386 559 q 386 584 377 600 q 371 610 363 616 q 355 622 340 627 l 340 680 q 393 677 436 658 q 480 639 518 603 q 617 505 617 332 q 617 154 508 56 z m 300 627 q 275 618 265 603 q 254 588 254 559 l 254 122 q 254 79 266 62 q 275 47 300 41 l 300 -13 q 191 -4 118 68 q 23 163 23 333 q 23 417 48 486 q 73 555 123 603 q 160 639 204 658 q 247 677 300 680 z"},"w":{"x_min":0,"x_max":821,"ha":821,"o":"m 380 236 l 321 0 l 216 0 l 59 574 q 53 593 49 600 q 44 607 33 611 q 13 619 13 637 q 13 651 25 659 q 38 667 60 667 l 288 667 q 310 667 317 661 q 328 653 328 641 q 328 625 311 615 q 296 607 292 601 q 288 596 288 584 q 288 579 290 574 z m 427 667 l 527 667 l 645 222 l 589 0 l 482 0 l 369 429 z m 663 300 l 638 399 l 673 544 q 678 561 678 570 q 678 585 670 595 q 662 606 643 615 q 631 622 626 627 q 622 633 622 643 q 622 655 630 661 q 638 667 655 667 l 771 667 q 792 667 800 661 q 808 655 808 642 q 808 634 803 629 q 799 624 790 620 q 768 610 757 599 q 735 577 724 534 z"},"-":{"x_min":0,"x_max":250,"ha":250,"o":"m 250 365 l 250 299 q 250 288 246 284 q 241 280 230 280 l 20 280 q 9 280 4 284 q 0 288 0 299 l 0 365 q 0 376 4 381 q 9 385 20 385 l 230 385 q 241 385 246 381 q 250 376 250 365 z"},"E":{"x_min":0,"x_max":587,"ha":587,"o":"m 307 667 l 307 0 l 89 0 l 77 0 q 59 0 50 7 q 40 13 40 25 q 40 45 60 52 q 76 57 78 58 q 81 60 84 64 q 90 72 90 89 l 90 578 q 90 595 84 603 q 81 607 78 608 q 76 609 60 615 q 40 621 40 641 q 40 653 50 660 q 59 667 77 667 l 89 667 z m 350 667 l 547 667 l 547 494 q 547 479 541 472 q 535 465 522 465 q 512 465 507 469 q 502 474 498 487 q 479 544 443 574 q 407 604 350 609 z m 348 311 l 348 368 q 376 381 390 397 q 403 414 410 440 q 414 459 420 466 q 426 473 438 473 q 454 473 459 461 q 463 455 463 432 l 463 246 q 463 223 458 214 q 453 206 439 206 q 428 206 421 212 q 415 219 411 235 q 403 269 387 287 q 372 305 348 311 z m 351 0 l 351 53 q 382 58 403 66 q 424 75 445 93 q 466 111 478 131 q 491 150 502 182 q 507 197 513 203 q 519 208 529 208 q 543 208 548 200 q 554 192 554 172 l 554 0 z"},"s":{"x_min":0,"x_max":560,"ha":560,"o":"m 265 680 l 265 624 q 235 615 219 598 q 203 581 203 555 q 203 531 216 512 q 229 494 259 478 q 280 466 352 435 q 396 416 420 400 q 444 385 466 362 q 523 301 523 218 q 523 155 492 103 q 461 50 406 21 q 377 5 342 -4 q 307 -13 277 -13 l 277 42 q 319 53 338 71 q 357 89 357 121 q 357 153 328 178 q 308 194 253 218 q 193 245 171 256 q 149 267 128 282 q 37 348 37 457 q 37 512 60 559 q 83 606 124 635 q 181 675 265 680 z m 304 624 l 304 677 q 333 675 354 670 q 376 664 416 647 q 425 644 432 644 q 441 644 445 650 l 456 664 q 464 675 475 675 q 488 675 494 665 q 500 656 500 635 l 500 474 q 500 460 492 451 q 484 442 472 442 q 462 442 454 448 q 449 452 447 458 q 444 463 441 477 q 436 500 423 526 q 410 551 392 571 q 357 611 304 624 z m 240 42 l 240 -13 q 200 -13 151 10 q 133 18 126 21 q 120 23 113 23 q 104 23 99 20 q 94 17 83 4 q 74 -7 64 -7 q 37 -7 37 35 l 37 213 q 37 227 44 236 q 52 246 64 246 q 75 247 81 240 q 87 233 91 217 q 103 175 124 138 q 145 102 173 76 q 202 50 240 42 z"},">":{"x_min":0,"x_max":423,"ha":423,"o":"m 0 76 l 0 145 l 238 293 l 0 456 l 0 639 l 423 348 l 423 339 z"},"l":{"x_min":0,"x_max":533,"ha":533,"o":"m 307 0 l 89 0 l 77 0 q 59 0 50 7 q 40 13 40 25 q 40 45 60 52 q 76 57 78 58 q 81 60 84 64 q 90 72 90 89 l 90 578 q 90 595 84 603 q 81 607 78 608 q 76 609 60 615 q 40 621 40 641 q 40 653 50 660 q 59 667 77 667 l 89 667 l 307 667 l 324 667 q 345 667 354 661 q 367 653 367 640 q 367 619 344 613 q 325 609 321 607 q 318 606 314 602 q 307 593 307 574 z m 346 0 l 346 55 q 370 59 384 64 q 398 70 411 80 q 431 96 448 125 q 465 153 476 188 q 484 214 490 223 q 497 231 510 231 q 523 231 530 220 q 533 215 533 199 l 533 0 z"},"8":{"x_min":0,"x_max":575,"ha":575,"o":"m 270 627 q 250 617 244 604 q 238 592 238 560 l 238 425 q 238 409 244 394 q 248 384 254 379 q 259 374 270 369 l 270 318 q 252 311 245 299 q 238 287 238 264 l 238 97 q 238 78 244 63 q 248 54 253 50 q 259 45 270 42 l 270 -8 l 260 -8 q 217 -8 172 2 q 145 9 127 17 q 109 25 92 39 q 37 85 37 163 q 37 207 54 243 q 72 279 104 303 q 122 316 142 325 q 162 334 196 344 q 163 354 143 363 q 124 372 107 386 q 56 429 56 501 q 56 548 80 587 q 103 626 145 647 q 191 671 270 675 z m 304 627 l 304 675 q 383 671 430 647 q 471 626 495 587 q 518 548 518 501 q 518 429 467 386 q 450 372 431 363 q 412 354 378 344 q 413 334 432 325 q 452 316 470 303 q 502 279 520 243 q 537 207 537 163 q 537 85 482 39 q 465 24 448 16 q 430 8 402 2 q 364 -6 314 -8 l 307 -8 l 307 42 q 318 45 323 50 q 329 54 333 63 q 339 78 339 97 l 339 264 q 339 269 336 280 q 333 291 330 297 q 326 305 320 309 q 315 313 304 318 l 304 369 q 315 374 321 379 q 327 384 330 394 q 332 399 335 411 q 339 423 339 425 l 339 560 q 339 565 336 577 l 331 604 q 326 616 304 627 z"},"\\":{"x_min":0,"x_max":332,"ha":332,"o":"m 112 667 l 396 -145 l 277 -145 l -8 667 z"},"e":{"x_min":0,"x_max":587,"ha":587,"o":"m 307 667 l 307 0 l 89 0 l 77 0 q 59 0 50 7 q 40 13 40 25 q 40 45 60 52 q 76 57 78 58 q 81 60 84 64 q 90 72 90 89 l 90 578 q 90 595 84 603 q 81 607 78 608 q 76 609 60 615 q 40 621 40 641 q 40 653 50 660 q 59 667 77 667 l 89 667 z m 350 667 l 547 667 l 547 494 q 547 479 541 472 q 535 465 522 465 q 512 465 507 469 q 502 474 498 487 q 479 544 443 574 q 407 604 350 609 z m 348 311 l 348 368 q 376 381 390 397 q 403 414 410 440 q 414 459 420 466 q 426 473 438 473 q 454 473 459 461 q 463 455 463 432 l 463 246 q 463 223 458 214 q 453 206 439 206 q 428 206 421 212 q 415 219 411 235 q 403 269 387 287 q 372 305 348 311 z m 351 0 l 351 53 q 382 58 403 66 q 424 75 445 93 q 466 111 478 131 q 491 150 502 182 q 507 197 513 203 q 519 208 529 208 q 543 208 548 200 q 554 192 554 172 l 554 0 z"},"b":{"x_min":0,"x_max":669,"ha":669,"o":"m 307 667 l 307 0 l 89 0 l 77 0 q 59 0 50 7 q 40 13 40 25 q 40 45 60 52 q 76 57 78 58 q 81 60 84 64 q 90 72 90 89 l 90 578 q 90 595 84 603 q 81 607 78 608 q 76 609 60 615 q 40 621 40 641 q 40 653 50 660 q 59 667 77 667 l 89 667 z m 458 345 q 502 336 526 328 q 550 320 569 307 q 602 286 619 252 q 636 217 636 175 q 636 91 575 44 q 543 20 505 10 q 466 0 404 0 l 346 0 l 346 51 q 366 53 377 57 q 388 61 397 71 q 413 89 413 127 l 413 238 q 413 262 409 276 q 405 290 394 301 q 385 310 375 313 q 366 317 348 320 l 348 371 q 366 372 376 375 q 386 379 394 387 q 402 394 407 406 q 413 417 413 427 l 413 454 l 413 539 q 413 552 409 566 q 404 581 398 589 q 389 600 377 605 q 366 611 346 613 l 346 667 l 402 667 q 514 667 572 621 q 599 600 613 570 q 627 540 627 505 q 627 471 613 441 q 599 411 573 391 q 554 375 529 365 q 504 355 458 345 z"},"%":{"x_min":0,"x_max":728,"ha":728,"o":"m 197 673 l 208 673 q 267 673 309 638 q 359 596 359 525 q 359 451 306 412 q 265 383 210 383 q 207 383 197 383 l 197 419 q 215 424 222 437 q 229 449 229 478 l 229 586 q 229 607 220 622 q 214 630 197 637 z m 172 673 l 172 637 q 153 630 147 622 q 137 607 137 586 l 137 478 q 137 449 144 437 q 152 424 172 419 l 172 383 q 162 383 158 383 q 102 383 61 412 q 7 451 7 525 q 7 582 39 620 q 83 673 161 673 z m 498 667 l 555 667 l 231 0 l 174 0 z m 557 283 l 568 284 q 629 284 671 249 q 722 207 722 136 q 722 62 668 22 q 626 -7 571 -7 q 569 -7 560 -6 l 560 30 q 578 35 585 47 q 592 60 592 88 l 592 196 q 592 218 582 232 q 576 240 557 247 z m 532 283 l 532 247 q 514 240 509 232 q 499 218 499 196 l 499 88 q 499 60 506 47 q 513 35 531 30 l 531 -6 q 521 -7 519 -7 q 464 -7 423 22 q 369 62 369 136 q 369 207 419 249 q 462 284 521 284 z"},"m":{"x_min":0,"x_max":783,"ha":783,"o":"m 477 667 l 693 667 l 707 667 q 743 667 743 641 q 743 621 724 615 q 708 609 705 608 q 702 607 699 603 q 693 595 693 578 l 693 89 q 693 72 699 64 q 702 60 705 58 q 708 57 724 52 q 743 45 743 25 q 743 0 707 0 l 693 0 l 476 0 l 460 0 q 438 0 427 7 q 417 13 417 26 q 417 48 440 53 q 459 58 462 59 q 466 61 469 65 q 477 74 477 93 z m 297 667 l 393 393 l 436 541 l 436 378 l 323 0 l 297 0 l 107 562 q 98 590 87 600 q 81 606 65 609 q 33 616 33 640 q 33 652 42 659 q 51 667 68 667 z m 107 442 l 159 294 l 159 147 q 159 125 161 115 q 163 105 168 94 q 179 72 197 62 l 215 50 q 233 39 233 25 q 233 0 197 0 l 74 0 q 38 0 38 24 q 38 32 41 36 q 44 41 53 46 q 107 75 107 147 z"},"#":{"x_min":0,"x_max":574,"ha":574,"o":"m 216 667 l 303 667 l 268 507 l 354 507 l 338 440 l 252 440 l 207 233 l 293 233 l 278 166 l 192 166 l 155 0 l 68 0 l 105 166 l -2 166 l 13 233 l 121 233 l 166 440 l 59 440 l 74 507 l 181 507 z m 425 667 l 511 667 l 476 507 l 583 507 l 568 440 l 461 440 l 416 233 l 522 233 l 507 166 l 400 166 l 363 0 l 275 0 z"},",":{"x_min":0,"x_max":334,"ha":334,"o":"m 166 175 q 208 175 237 143 q 251 127 260 106 q 268 84 268 62 q 268 16 238 -32 q 208 -80 157 -113 q 114 -141 89 -141 q 80 -141 73 -135 q 67 -129 67 -120 q 67 -105 85 -95 q 130 -72 150 -50 q 170 -29 170 -19 q 170 -10 155 -8 l 149 -7 l 142 -6 q 110 -1 90 23 q 70 48 70 83 q 70 119 95 146 q 123 175 166 175 z"},"n":{"x_min":0,"x_max":671,"ha":671,"o":"m 316 667 l 576 215 l 576 0 l 443 0 l 111 571 q 101 590 94 597 q 87 604 76 608 l 58 615 q 50 617 46 624 q 42 630 42 638 q 42 646 46 653 q 50 660 58 663 q 66 667 103 667 z m 112 495 l 164 409 l 164 147 q 164 113 175 91 q 187 69 211 55 l 226 47 q 239 40 239 25 q 239 14 229 6 q 222 0 197 0 l 84 0 q 40 0 40 25 q 40 34 45 39 q 49 44 65 53 q 112 79 112 147 z m 576 293 l 524 381 l 524 516 q 524 557 512 579 q 500 601 470 616 q 460 621 456 627 q 452 632 452 641 q 452 654 461 660 q 469 667 488 667 l 610 667 q 635 667 643 659 q 651 651 651 640 q 651 630 647 625 q 642 620 625 611 q 599 598 585 570 q 576 550 576 516 z"},"h":{"x_min":0,"x_max":755,"ha":755,"o":"m 358 365 l 438 365 l 438 578 q 438 605 424 610 l 408 615 q 390 621 390 641 q 390 667 425 667 l 438 667 l 655 667 l 668 667 q 705 667 705 641 q 705 621 685 615 q 669 609 666 608 q 664 607 661 603 q 655 595 655 578 l 655 91 q 655 64 669 58 l 685 53 q 705 46 705 26 q 705 0 668 0 l 655 0 l 438 0 l 424 0 q 390 0 390 26 q 390 46 408 53 l 424 58 q 438 62 438 91 l 438 316 l 358 316 z m 317 0 l 100 0 l 87 0 q 69 0 60 7 q 50 13 50 25 q 50 45 70 52 q 86 57 89 58 q 91 60 94 64 q 100 72 100 89 l 100 578 q 100 595 94 603 q 91 607 89 608 q 86 609 70 615 q 50 621 50 641 q 50 653 60 660 q 69 667 87 667 l 100 667 l 317 667 l 330 667 q 365 667 365 641 q 365 621 346 615 l 331 610 q 317 605 317 578 l 317 89 q 317 62 331 57 l 346 52 q 365 46 365 25 q 365 0 330 0 z"},"z":{"x_min":0,"x_max":523,"ha":523,"o":"m 503 667 l 503 610 l 233 0 l 20 0 l 20 48 l 291 667 z m 37 667 l 249 667 l 224 611 q 183 605 148 581 q 104 549 88 492 q 84 477 78 471 q 72 465 62 465 q 37 465 37 494 z m 503 0 l 275 0 l 297 49 q 357 63 384 82 q 407 98 421 119 q 435 140 451 182 q 457 197 462 203 q 468 208 478 208 q 490 208 497 200 q 503 191 503 174 z"},"B":{"x_min":0,"x_max":669,"ha":669,"o":"m 307 667 l 307 0 l 89 0 l 77 0 q 59 0 50 7 q 40 13 40 25 q 40 45 60 52 q 76 57 78 58 q 81 60 84 64 q 90 72 90 89 l 90 578 q 90 595 84 603 q 81 607 78 608 q 76 609 60 615 q 40 621 40 641 q 40 653 50 660 q 59 667 77 667 l 89 667 z m 458 345 q 502 336 526 328 q 550 320 569 307 q 602 286 619 252 q 636 217 636 175 q 636 91 575 44 q 543 20 505 10 q 466 0 404 0 l 346 0 l 346 51 q 366 53 377 57 q 388 61 397 71 q 413 89 413 127 l 413 238 q 413 262 409 276 q 405 290 394 301 q 385 310 375 313 q 366 317 348 320 l 348 371 q 366 372 376 375 q 386 379 394 387 q 402 394 407 406 q 413 417 413 427 l 413 454 l 413 539 q 413 552 409 566 q 404 581 398 589 q 389 600 377 605 q 366 611 346 613 l 346 667 l 402 667 q 514 667 572 621 q 599 600 613 570 q 627 540 627 505 q 627 471 613 441 q 599 411 573 391 q 554 375 529 365 q 504 355 458 345 z"},"K":{"x_min":0,"x_max":734,"ha":734,"o":"m 317 0 l 100 0 l 87 0 q 69 0 60 7 q 50 13 50 25 q 50 45 70 52 q 86 57 89 58 q 91 60 94 64 q 100 72 100 89 l 100 578 q 100 595 94 603 q 91 607 89 608 q 86 609 70 615 q 50 621 50 641 q 50 653 60 660 q 69 667 87 667 l 100 667 l 317 667 l 330 667 q 348 667 357 660 q 367 653 367 641 q 367 621 347 615 q 331 609 328 608 q 326 607 323 603 q 317 595 317 578 l 317 89 q 317 62 331 57 l 346 52 q 365 46 365 25 q 365 0 330 0 z m 511 473 l 658 87 q 664 72 670 64 q 677 56 687 51 q 697 46 700 44 q 707 37 707 26 q 707 0 670 0 l 425 0 q 407 0 398 7 q 388 15 388 28 q 388 44 406 53 q 417 58 421 62 q 425 65 426 72 q 426 75 422 87 l 359 274 q 351 300 351 318 q 351 335 365 355 l 481 520 q 498 542 498 567 q 498 581 491 593 q 483 604 471 609 l 454 617 q 437 624 437 640 q 437 653 447 661 q 454 667 470 667 l 644 667 q 661 667 670 659 q 680 651 680 638 q 680 617 657 608 l 631 598 q 615 592 590 572 q 572 556 544 520 z"},"R":{"x_min":0,"x_max":699,"ha":699,"o":"m 307 667 l 307 93 q 307 74 314 65 q 318 61 321 59 q 325 58 344 53 q 367 48 367 26 q 367 14 354 6 q 345 0 324 0 l 307 0 l 89 0 l 77 0 q 59 0 50 7 q 40 13 40 25 q 40 45 60 52 q 76 57 78 58 q 81 60 84 64 q 90 72 90 89 l 90 578 q 90 595 84 603 q 81 607 78 608 q 76 609 60 615 q 40 621 40 641 q 40 653 50 660 q 59 667 77 667 l 89 667 z m 457 327 q 501 320 526 312 q 550 303 569 289 q 590 274 601 253 q 612 232 612 208 l 612 107 q 612 92 622 92 q 626 92 629 94 q 631 96 636 103 q 648 119 661 119 q 669 119 678 110 q 686 102 686 93 q 686 78 672 56 q 657 34 636 17 q 616 1 592 -6 q 569 -13 537 -13 q 473 -13 437 24 q 400 61 400 126 l 400 208 q 400 236 400 240 q 397 260 386 274 q 372 291 346 294 l 346 346 q 372 350 383 360 q 393 369 397 380 q 400 391 400 413 l 400 542 q 400 573 388 588 q 376 604 345 612 l 345 667 l 358 667 q 412 667 450 663 q 507 657 551 625 q 615 580 615 496 q 615 427 572 383 q 554 365 530 353 q 506 341 457 327 z"},"T":{"x_min":0,"x_max":594,"ha":594,"o":"m 405 667 l 405 93 q 405 74 412 65 q 416 61 419 59 q 423 58 442 53 q 465 48 465 26 q 465 14 453 6 q 443 0 421 0 l 405 0 l 188 0 l 171 0 q 150 0 139 7 q 128 13 128 26 q 128 48 151 53 q 170 58 174 59 q 177 61 181 65 q 188 74 188 93 l 188 667 z m 574 667 l 574 467 q 574 453 566 444 q 558 435 545 435 q 533 435 525 443 q 517 451 514 465 l 509 495 q 502 541 481 574 q 468 594 445 607 l 445 667 z m 20 667 l 148 667 l 148 607 q 125 594 113 574 q 92 541 84 495 l 80 465 q 77 451 69 443 q 61 435 49 435 q 36 435 28 444 q 20 453 20 467 z"},"P":{"x_min":0,"x_max":636,"ha":636,"o":"m 307 667 l 307 93 q 307 74 314 65 q 318 61 321 59 q 325 58 344 53 q 367 48 367 26 q 367 14 354 6 q 345 0 324 0 l 307 0 l 89 0 l 77 0 q 59 0 50 7 q 40 13 40 25 q 40 45 60 52 q 76 57 78 58 q 81 60 84 64 q 90 72 90 89 l 90 578 q 90 595 84 603 q 81 607 78 608 q 76 609 60 615 q 40 621 40 641 q 40 653 50 660 q 59 667 77 667 l 89 667 z m 348 255 l 348 308 q 369 312 378 318 q 386 323 393 334 q 403 354 403 386 l 403 542 q 403 565 399 576 q 396 587 386 597 q 372 610 348 614 l 348 667 q 448 667 496 647 q 551 625 583 580 q 616 534 616 466 q 616 391 583 343 q 550 296 490 273 q 441 255 348 255 z"},"|":{"x_min":0,"x_max":108,"ha":108,"o":"m 0 667 l 108 667 l 108 -167 l 0 -167 z"},"t":{"x_min":0,"x_max":594,"ha":594,"o":"m 405 667 l 405 93 q 405 74 412 65 q 416 61 419 59 q 423 58 442 53 q 465 48 465 26 q 465 14 453 6 q 443 0 421 0 l 405 0 l 188 0 l 171 0 q 150 0 139 7 q 128 13 128 26 q 128 48 151 53 q 170 58 174 59 q 177 61 181 65 q 188 74 188 93 l 188 667 z m 574 667 l 574 467 q 574 453 566 444 q 558 435 545 435 q 533 435 525 443 q 517 451 514 465 l 509 495 q 502 541 481 574 q 468 594 445 607 l 445 667 z m 20 667 l 148 667 l 148 607 q 125 594 113 574 q 92 541 84 495 l 80 465 q 77 451 69 443 q 61 435 49 435 q 36 435 28 444 q 20 453 20 467 z"},"M":{"x_min":0,"x_max":783,"ha":783,"o":"m 477 667 l 693 667 l 707 667 q 743 667 743 641 q 743 621 724 615 q 708 609 705 608 q 702 607 699 603 q 693 595 693 578 l 693 89 q 693 72 699 64 q 702 60 705 58 q 708 57 724 52 q 743 45 743 25 q 743 0 707 0 l 693 0 l 476 0 l 460 0 q 438 0 427 7 q 417 13 417 26 q 417 48 440 53 q 459 58 462 59 q 466 61 469 65 q 477 74 477 93 z m 297 667 l 393 393 l 436 541 l 436 378 l 323 0 l 297 0 l 107 562 q 98 590 87 600 q 81 606 65 609 q 33 616 33 640 q 33 652 42 659 q 51 667 68 667 z m 107 442 l 159 294 l 159 147 q 159 125 161 115 q 163 105 168 94 q 179 72 197 62 l 215 50 q 233 39 233 25 q 233 0 197 0 l 74 0 q 38 0 38 24 q 38 32 41 36 q 44 41 53 46 q 107 75 107 147 z"},"g":{"x_min":0,"x_max":620,"ha":620,"o":"m 294 680 l 294 625 q 251 615 251 557 l 251 103 q 251 76 259 62 q 265 50 286 42 l 286 -13 q 270 -13 257 -11 q 244 -8 223 -1 q 171 17 130 53 q 88 89 62 139 q 20 218 20 325 q 20 429 57 510 q 94 590 164 636 q 204 663 250 675 q 269 680 294 680 z m 334 626 l 334 679 q 414 672 465 650 q 480 643 489 643 q 497 643 501 647 q 505 650 518 667 q 526 680 540 680 q 553 680 559 672 q 564 665 564 647 l 564 457 q 564 420 537 420 q 523 420 517 427 q 510 435 504 456 q 497 483 478 520 q 459 556 441 577 q 421 602 396 613 q 372 625 334 626 z m 555 82 q 536 62 503 42 q 471 21 442 10 q 416 0 384 -7 q 352 -13 327 -13 l 327 42 q 341 45 348 50 q 355 55 360 64 q 369 79 369 103 l 369 245 q 369 264 361 272 q 358 277 354 279 q 351 280 332 284 q 309 290 309 312 q 309 324 320 331 q 331 338 352 338 l 368 338 l 547 338 q 569 338 578 332 q 587 326 587 311 q 587 301 583 295 q 580 289 570 282 q 560 275 558 270 q 555 264 555 248 z"},"j":{"x_min":0,"x_max":536,"ha":536,"o":"m 243 112 l 243 574 q 243 604 226 608 l 207 613 q 183 619 183 640 q 183 653 194 659 q 205 666 227 666 l 243 667 l 460 667 l 473 667 l 491 665 q 510 660 510 641 q 510 622 490 615 l 475 610 q 460 605 460 578 l 460 169 q 460 80 401 33 q 374 11 331 -1 q 288 -14 240 -14 q 231 -14 211 -13 l 211 44 q 215 46 216 47 q 226 55 230 59 q 234 64 237 71 q 243 87 243 112 z m 167 44 l 167 -10 q 106 0 70 24 q 37 46 18 78 q 0 110 0 146 q 0 191 31 223 q 61 254 104 254 q 144 254 173 226 q 201 197 201 157 q 201 126 180 99 q 166 81 139 69 q 130 65 130 62 q 129 60 134 56 q 139 53 146 50 q 153 47 167 44 z"},"i":{"x_min":0,"x_max":396,"ha":396,"o":"m 307 0 l 89 0 l 77 0 q 59 0 50 7 q 40 13 40 25 q 40 45 60 52 q 76 57 78 58 q 81 60 84 64 q 90 72 90 89 l 90 578 q 90 595 84 603 q 81 607 78 608 q 76 609 60 615 q 40 621 40 641 q 40 653 50 660 q 59 667 77 667 l 89 667 l 307 667 l 320 667 q 337 667 347 660 q 356 653 356 641 q 356 621 337 615 q 321 609 318 608 q 315 607 312 603 q 307 595 307 578 l 307 89 q 307 72 312 64 q 315 60 318 58 q 321 57 337 52 q 356 45 356 25 q 356 13 347 7 q 337 0 320 0 z"},"y":{"x_min":0,"x_max":597,"ha":597,"o":"m 401 306 l 401 93 q 401 74 408 65 q 412 61 416 59 q 419 58 438 53 q 461 48 461 26 q 461 12 448 5 q 440 0 418 0 l 401 0 l 184 0 l 167 0 q 146 0 137 6 q 124 14 124 26 q 124 48 147 53 q 167 58 170 59 q 173 61 177 65 q 184 74 184 93 l 184 258 l 46 587 q 38 606 24 614 q 11 623 7 627 q 3 632 3 641 q 3 667 41 667 l 280 667 q 299 667 306 662 q 318 654 318 642 q 318 626 304 617 l 290 608 q 282 603 282 592 q 282 580 287 568 z m 420 352 l 393 416 l 444 531 q 450 545 450 571 q 450 599 419 611 q 402 618 397 623 q 392 628 392 639 q 392 652 400 659 q 406 664 414 665 q 421 667 439 667 l 560 667 q 594 667 594 639 q 594 629 589 624 q 584 619 571 613 q 547 602 537 591 q 522 576 513 556 l 501 531 z"},"@":{"x_min":0,"x_max":707,"ha":707,"o":"m 523 228 q 554 236 572 249 q 597 267 614 307 q 630 347 630 391 q 630 432 615 472 q 600 512 572 542 q 538 581 487 602 q 436 623 375 623 q 308 623 248 597 q 189 570 148 521 q 114 481 95 430 q 77 378 77 326 q 77 273 94 225 q 112 176 146 138 q 189 88 244 66 q 299 43 381 43 q 470 43 558 72 l 577 19 q 542 5 487 -3 q 431 -12 369 -12 q 202 -12 105 98 q 65 144 42 204 q 20 264 20 327 q 20 404 53 476 q 86 548 144 597 q 189 636 248 657 q 306 678 368 678 q 441 678 503 654 q 564 630 608 583 q 646 544 667 494 q 687 444 687 390 q 687 335 667 289 q 646 242 611 212 q 590 195 569 186 q 547 176 513 168 z m 528 500 l 478 272 q 474 257 473 247 q 471 226 497 226 l 484 166 q 454 160 431 160 q 390 160 373 180 q 356 198 356 220 q 356 229 361 250 l 411 476 q 414 489 418 494 q 422 500 430 500 l 463 500 z m 333 383 l 313 295 l 306 265 q 304 259 304 250 q 304 233 309 226 q 314 218 325 217 q 335 217 337 212 q 341 206 341 198 q 341 183 329 174 q 321 168 306 164 q 291 160 276 160 q 247 160 225 177 q 208 190 198 213 q 188 236 188 260 q 188 310 206 361 q 225 412 256 446 q 281 474 308 487 q 335 500 370 500 q 393 500 393 487 q 393 483 389 467 q 387 460 384 456 q 380 453 370 446 q 355 437 347 422 q 338 407 333 383 z"},".":{"x_min":0,"x_max":323,"ha":323,"o":"m 162 177 q 201 177 229 149 q 256 121 256 82 q 256 42 229 15 q 201 -13 162 -13 q 122 -13 94 15 q 66 42 66 82 q 66 121 94 149 q 122 177 162 177 z"},"p":{"x_min":0,"x_max":636,"ha":636,"o":"m 307 667 l 307 93 q 307 74 314 65 q 318 61 321 59 q 325 58 344 53 q 367 48 367 26 q 367 14 354 6 q 345 0 324 0 l 307 0 l 89 0 l 77 0 q 59 0 50 7 q 40 13 40 25 q 40 45 60 52 q 76 57 78 58 q 81 60 84 64 q 90 72 90 89 l 90 578 q 90 595 84 603 q 81 607 78 608 q 76 609 60 615 q 40 621 40 641 q 40 653 50 660 q 59 667 77 667 l 89 667 z m 348 255 l 348 308 q 369 312 378 318 q 386 323 393 334 q 403 354 403 386 l 403 542 q 403 565 399 576 q 396 587 386 597 q 372 610 348 614 l 348 667 q 448 667 496 647 q 551 625 583 580 q 616 534 616 466 q 616 391 583 343 q 550 296 490 273 q 441 255 348 255 z"},"X":{"x_min":0,"x_max":608,"ha":608,"o":"m 306 581 l 552 82 q 561 64 576 57 q 589 50 594 44 q 598 38 598 28 q 598 15 588 7 q 580 0 553 0 l 324 0 q 298 0 290 3 q 273 11 273 28 q 273 35 276 39 q 280 44 289 51 q 306 63 305 73 q 305 82 296 98 l 57 581 q 51 593 44 600 q 37 607 26 613 q 16 618 12 624 q 9 630 9 640 q 9 655 19 661 q 30 667 57 667 l 284 667 q 309 667 320 660 q 331 654 331 640 q 331 625 315 615 q 308 609 305 606 q 302 602 302 596 q 302 589 306 581 z m 416 446 l 389 500 l 416 546 q 425 562 425 574 q 425 585 419 595 q 412 605 401 610 l 384 618 q 379 621 376 627 q 372 634 372 641 q 372 653 380 660 q 389 667 402 667 l 543 667 q 557 667 566 660 q 575 654 575 645 q 575 633 566 624 q 563 621 546 612 q 511 593 488 557 z m 186 238 l 212 183 l 182 133 q 166 106 166 90 q 166 66 192 56 q 207 50 212 44 q 217 38 217 28 q 217 14 206 5 q 201 2 196 1 q 190 0 175 0 l 49 0 q 34 0 25 7 q 16 13 16 25 q 16 34 21 40 q 27 46 41 52 q 78 66 98 98 z"},"*":{"x_min":0,"x_max":575,"ha":575,"o":"m 287 513 l 227 613 q 219 626 219 638 q 219 654 229 664 q 237 672 251 676 q 265 680 287 680 q 310 680 323 676 q 337 672 345 664 q 355 654 355 638 q 355 626 347 613 z m 306 500 l 382 587 q 397 605 417 605 q 434 605 446 590 q 456 578 464 553 q 473 527 473 511 q 473 494 461 483 q 450 472 432 472 q 426 472 419 473 z m 299 477 l 406 432 q 419 426 427 416 q 435 406 435 394 q 435 382 427 371 q 420 361 403 347 q 369 320 348 320 q 332 320 321 331 q 311 342 309 361 z m 275 477 l 266 361 q 264 343 253 332 q 243 320 226 320 q 205 320 171 347 q 154 361 147 371 q 140 382 140 394 q 140 406 147 416 q 155 426 168 432 z m 268 500 l 155 473 q 148 472 142 472 q 125 472 113 483 q 102 494 102 511 q 102 527 110 552 q 119 578 128 589 q 140 604 158 604 q 177 604 192 587 z"},"Y":{"x_min":0,"x_max":597,"ha":597,"o":"m 401 306 l 401 93 q 401 74 408 65 q 412 61 416 59 q 419 58 438 53 q 461 48 461 26 q 461 12 448 5 q 440 0 418 0 l 401 0 l 184 0 l 167 0 q 146 0 137 6 q 124 14 124 26 q 124 48 147 53 q 167 58 170 59 q 173 61 177 65 q 184 74 184 93 l 184 258 l 46 587 q 38 606 24 614 q 11 623 7 627 q 3 632 3 641 q 3 667 41 667 l 280 667 q 299 667 306 662 q 318 654 318 642 q 318 626 304 617 l 290 608 q 282 603 282 592 q 282 580 287 568 z m 420 352 l 393 416 l 444 531 q 450 545 450 571 q 450 599 419 611 q 402 618 397 623 q 392 628 392 639 q 392 652 400 659 q 406 664 414 665 q 421 667 439 667 l 560 667 q 594 667 594 639 q 594 629 589 624 q 584 619 571 613 q 547 602 537 591 q 522 576 513 556 l 501 531 z"},"c":{"x_min":0,"x_max":584,"ha":584,"o":"m 309 680 l 309 621 q 280 616 266 595 q 251 574 251 535 l 251 132 l 251 111 q 251 100 256 87 q 261 75 268 66 q 276 56 285 52 q 293 48 309 46 l 309 -13 q 214 -13 144 36 q 83 80 51 153 q 20 227 20 327 q 20 401 40 465 q 61 528 99 575 q 138 623 193 651 q 247 680 297 680 z m 347 620 l 347 679 q 371 675 386 671 q 401 667 440 652 q 465 644 473 644 q 487 644 495 656 l 501 668 q 507 680 523 680 q 536 680 543 672 q 550 664 550 649 l 550 446 q 550 426 542 417 q 533 409 521 409 q 510 409 503 416 q 496 424 491 441 q 481 479 471 501 q 450 548 423 577 q 405 596 387 607 q 369 617 347 620 z m 349 -13 l 349 46 q 387 49 429 75 q 451 89 469 113 q 486 137 495 165 q 500 181 507 187 q 513 194 524 194 q 536 194 543 185 q 551 176 551 163 q 551 141 534 110 q 518 79 491 52 q 459 20 425 4 q 391 -11 349 -13 z"},"!":{"x_min":0,"x_max":337,"ha":337,"o":"m 169 680 q 212 680 240 646 q 268 612 268 559 q 268 537 262 513 q 257 490 241 441 q 219 373 210 332 q 201 292 199 252 q 198 232 191 224 q 185 216 170 216 q 157 216 151 223 q 145 230 144 246 q 141 279 139 292 q 137 306 130 334 q 118 380 100 433 q 78 495 72 518 q 66 541 66 568 q 66 612 93 645 q 121 680 169 680 z m 167 177 q 206 177 233 149 q 261 121 261 82 q 261 42 233 15 q 206 -13 167 -13 q 127 -13 99 15 q 71 42 71 82 q 71 121 99 149 q 127 177 167 177 z"},"/":{"x_min":0,"x_max":332,"ha":332,"o":"m 221 667 l 340 667 l 56 -145 l -64 -145 z"},"[":{"x_min":0,"x_max":394,"ha":394,"o":"m 284 -145 l 94 -145 q 83 -145 80 -142 q 77 -139 77 -127 l 77 649 q 77 661 80 664 q 83 667 94 667 l 284 667 q 329 667 340 657 q 350 648 350 633 q 350 620 343 613 q 336 606 319 603 q 295 598 285 594 q 275 590 267 583 q 257 573 253 559 q 249 544 249 519 l 249 3 q 249 -22 253 -37 q 257 -51 267 -61 q 275 -68 285 -72 q 295 -76 319 -81 q 336 -84 343 -91 q 350 -98 350 -111 q 350 -126 340 -135 q 329 -145 284 -145 z"},"6":{"x_min":0,"x_max":575,"ha":575,"o":"m 288 675 l 288 625 q 261 617 250 601 q 238 584 238 555 l 238 107 q 238 84 240 75 q 241 66 247 59 q 254 49 277 43 l 277 -8 q 230 -3 189 20 q 148 42 116 81 q 80 125 60 192 q 40 259 40 337 q 40 505 136 603 q 170 637 210 656 q 250 675 288 675 z m 325 625 l 325 675 q 373 675 423 651 q 465 631 489 599 q 512 567 512 530 q 512 490 485 462 q 458 435 417 435 q 380 435 355 458 q 330 482 330 515 q 330 541 352 566 q 362 578 365 584 q 369 590 369 597 q 369 620 325 625 z m 277 305 l 277 361 q 330 391 380 391 q 410 391 441 379 q 471 367 494 347 q 520 323 534 290 q 548 256 548 219 q 548 169 526 121 q 505 73 470 43 q 441 20 402 6 q 363 -8 326 -8 l 313 -8 l 313 43 q 333 48 341 59 q 350 69 350 90 l 350 272 q 350 294 340 307 q 331 320 316 319 q 301 318 277 305 z"},"r":{"x_min":0,"x_max":699,"ha":699,"o":"m 307 667 l 307 93 q 307 74 314 65 q 318 61 321 59 q 325 58 344 53 q 367 48 367 26 q 367 14 354 6 q 345 0 324 0 l 307 0 l 89 0 l 77 0 q 59 0 50 7 q 40 13 40 25 q 40 45 60 52 q 76 57 78 58 q 81 60 84 64 q 90 72 90 89 l 90 578 q 90 595 84 603 q 81 607 78 608 q 76 609 60 615 q 40 621 40 641 q 40 653 50 660 q 59 667 77 667 l 89 667 z m 457 327 q 501 320 526 312 q 550 303 569 289 q 590 274 601 253 q 612 232 612 208 l 612 107 q 612 92 622 92 q 626 92 629 94 q 631 96 636 103 q 648 119 661 119 q 669 119 678 110 q 686 102 686 93 q 686 78 672 56 q 657 34 636 17 q 616 1 592 -6 q 569 -13 537 -13 q 473 -13 437 24 q 400 61 400 126 l 400 208 q 400 236 400 240 q 397 260 386 274 q 372 291 346 294 l 346 346 q 372 350 383 360 q 393 369 397 380 q 400 391 400 413 l 400 542 q 400 573 388 588 q 376 604 345 612 l 345 667 l 358 667 q 412 667 450 663 q 507 657 551 625 q 615 580 615 496 q 615 427 572 383 q 554 365 530 353 q 506 341 457 327 z"},"2":{"x_min":0,"x_max":575,"ha":575,"o":"m 215 673 l 215 622 q 201 619 193 613 q 184 608 185 603 q 186 596 198 588 q 220 573 229 555 q 239 538 239 513 q 239 476 211 449 q 183 422 145 422 q 104 422 76 450 q 48 479 48 521 q 48 562 72 596 q 96 631 138 651 q 164 664 215 673 z m 258 622 l 258 675 l 271 675 q 322 675 368 658 q 414 641 445 611 q 497 561 497 484 q 497 418 458 367 q 419 316 348 288 l 284 262 q 256 251 205 223 l 190 215 q 171 215 153 210 q 135 205 101 190 q 118 213 136 230 q 154 248 189 275 q 235 311 251 327 q 267 343 278 364 q 290 385 295 414 q 300 443 300 488 q 300 566 286 593 q 281 604 275 610 q 269 616 258 622 z m 493 217 q 503 217 510 208 q 518 199 518 184 q 518 150 500 108 q 482 66 457 41 q 436 19 404 5 q 372 -8 344 -8 q 310 -8 271 3 l 207 22 q 153 38 137 38 q 115 38 91 17 q 76 4 68 4 q 57 4 51 12 q 45 19 45 33 q 45 59 57 86 q 69 114 90 134 q 135 178 211 178 q 247 178 308 167 q 396 150 423 150 q 446 150 458 162 q 461 166 464 172 q 466 177 469 192 q 475 216 493 217 z"},"{":{"x_min":0,"x_max":434,"ha":434,"o":"m 190 262 q 231 254 251 245 q 271 237 283 222 q 294 208 297 193 q 299 178 299 125 l 299 -2 q 299 -35 309 -50 q 316 -62 328 -69 q 340 -75 369 -81 q 386 -84 393 -91 q 400 -98 400 -111 q 400 -126 390 -135 q 379 -145 334 -145 l 287 -145 q 202 -145 169 -111 q 146 -87 141 -46 q 138 -27 138 39 l 138 113 l 136 162 q 136 193 123 208 q 114 220 102 226 q 90 231 68 233 q 53 235 46 241 q 39 248 39 262 q 39 275 46 282 q 53 289 68 290 q 90 292 102 297 q 114 303 123 315 q 136 331 136 362 l 138 411 l 138 485 q 138 550 141 570 q 146 611 169 634 q 185 651 213 659 q 241 667 287 667 l 354 667 q 400 667 400 633 q 400 620 393 613 q 386 606 369 603 q 348 598 340 595 q 331 593 323 587 q 304 574 302 553 l 300 536 l 299 520 l 299 398 q 299 345 297 330 q 294 315 283 301 q 271 287 251 278 q 231 270 190 262 z"},"9":{"x_min":0,"x_max":575,"ha":575,"o":"m 287 -8 l 287 41 q 302 46 310 51 q 318 57 324 67 q 336 87 336 112 l 336 562 q 336 585 335 594 q 333 604 328 611 q 320 621 298 627 l 298 675 q 345 670 386 647 q 427 625 459 585 q 495 542 515 475 q 535 408 535 329 q 535 161 438 63 q 405 29 365 10 q 325 -8 287 -8 z m 250 41 l 250 -8 q 202 -8 152 15 q 110 35 86 67 q 62 99 62 136 q 62 177 90 204 q 117 231 158 231 q 194 231 220 208 q 246 184 246 150 q 246 127 234 111 l 219 89 q 212 80 212 72 q 212 58 228 47 q 235 42 250 41 z m 298 361 l 298 305 q 245 276 195 276 q 165 276 134 288 q 104 299 81 320 q 55 343 41 377 q 27 410 27 448 q 27 503 52 554 q 77 604 119 633 q 179 675 261 675 l 261 627 q 242 622 234 611 q 225 601 225 580 l 225 394 q 225 372 234 360 q 244 347 259 348 q 274 348 298 361 z"}," ":{"x_min":0,"x_max":250,"ha":250,"o":""},"I":{"x_min":0,"x_max":396,"ha":396,"o":"m 307 0 l 89 0 l 77 0 q 59 0 50 7 q 40 13 40 25 q 40 45 60 52 q 76 57 78 58 q 81 60 84 64 q 90 72 90 89 l 90 578 q 90 595 84 603 q 81 607 78 608 q 76 609 60 615 q 40 621 40 641 q 40 653 50 660 q 59 667 77 667 l 89 667 l 307 667 l 320 667 q 337 667 347 660 q 356 653 356 641 q 356 621 337 615 q 321 609 318 608 q 315 607 312 603 q 307 595 307 578 l 307 89 q 307 72 312 64 q 315 60 318 58 q 321 57 337 52 q 356 45 356 25 q 356 13 347 7 q 337 0 320 0 z"},"H":{"x_min":0,"x_max":755,"ha":755,"o":"m 358 365 l 438 365 l 438 578 q 438 605 424 610 l 408 615 q 390 621 390 641 q 390 667 425 667 l 438 667 l 655 667 l 668 667 q 705 667 705 641 q 705 621 685 615 q 669 609 666 608 q 664 607 661 603 q 655 595 655 578 l 655 91 q 655 64 669 58 l 685 53 q 705 46 705 26 q 705 0 668 0 l 655 0 l 438 0 l 424 0 q 390 0 390 26 q 390 46 408 53 l 424 58 q 438 62 438 91 l 438 316 l 358 316 z m 317 0 l 100 0 l 87 0 q 69 0 60 7 q 50 13 50 25 q 50 45 70 52 q 86 57 89 58 q 91 60 94 64 q 100 72 100 89 l 100 578 q 100 595 94 603 q 91 607 89 608 q 86 609 70 615 q 50 621 50 641 q 50 653 60 660 q 69 667 87 667 l 100 667 l 317 667 l 330 667 q 365 667 365 641 q 365 621 346 615 l 331 610 q 317 605 317 578 l 317 89 q 317 62 331 57 l 346 52 q 365 46 365 25 q 365 0 330 0 z"},"4":{"x_min":0,"x_max":573,"ha":573,"o":"m 268 541 l 345 647 q 354 660 361 663 q 369 667 388 667 l 431 667 q 448 667 452 660 q 455 654 455 640 l 455 203 l 516 203 q 540 203 540 179 q 540 154 513 154 l 455 154 l 455 92 q 455 74 462 65 q 466 61 469 59 q 473 58 492 53 q 515 48 515 26 q 515 14 502 6 q 493 0 471 0 l 455 0 l 268 0 l 251 0 q 229 0 221 6 q 208 14 208 26 q 208 48 231 53 q 250 58 254 59 q 257 61 261 65 q 268 74 268 92 z m 229 488 l 229 416 l 76 203 l 229 203 l 229 154 l 59 154 q 38 154 31 161 q 23 167 23 184 q 23 205 40 228 l 47 238 z"},"~":{"x_min":0,"x_max":388,"ha":388,"o":"m 363 733 l 388 718 q 366 675 333 640 q 314 621 296 613 q 278 604 256 604 q 241 604 225 608 q 208 612 183 622 l 154 632 q 125 644 97 644 q 78 644 62 635 q 50 629 32 610 q 30 607 23 601 l 0 615 q 30 671 56 696 q 91 730 130 730 q 155 730 210 710 q 264 691 287 691 q 329 691 363 733 z"},"D":{"x_min":0,"x_max":648,"ha":648,"o":"m 307 667 l 307 0 l 89 0 l 77 0 q 59 0 50 7 q 40 13 40 25 q 40 45 60 52 q 76 57 78 58 q 81 60 84 64 q 90 72 90 89 l 90 578 q 90 595 84 603 q 81 607 78 608 q 76 609 60 615 q 40 621 40 641 q 40 653 50 660 q 59 667 77 667 l 89 667 z m 405 140 l 405 525 q 405 561 395 582 q 389 595 379 602 q 370 608 350 612 l 350 667 q 376 667 394 665 q 456 658 514 612 q 572 567 600 496 q 628 424 628 336 q 628 236 592 159 q 555 82 487 37 q 454 16 425 8 q 396 0 350 0 l 350 53 q 371 58 379 62 q 387 67 393 76 q 400 87 403 100 q 405 114 405 140 z"},"^":{"x_min":0,"x_max":563,"ha":563,"o":"m 0 276 l 263 700 l 272 700 l 563 276 l 380 276 l 218 514 l 69 276 z"},"0":{"x_min":0,"x_max":574,"ha":574,"o":"m 269 -8 q 217 -2 177 21 q 138 43 104 86 q 66 133 46 196 q 27 259 27 333 q 27 407 46 470 q 66 533 104 580 q 138 623 177 646 q 217 668 269 675 l 269 624 q 255 620 250 616 q 244 613 239 607 q 225 589 225 555 l 225 112 q 225 78 239 60 q 244 53 250 50 q 255 47 269 42 z m 306 -8 l 306 42 q 320 47 325 50 q 331 53 335 60 q 350 78 350 112 l 350 555 q 350 589 335 607 q 331 613 325 616 q 320 620 306 624 l 306 675 q 357 668 397 646 q 437 623 471 580 q 509 533 528 470 q 548 407 548 333 q 548 259 528 196 q 509 133 471 86 q 437 43 397 21 q 357 -2 306 -8 z"},"F":{"x_min":0,"x_max":566,"ha":566,"o":"m 307 667 l 307 93 q 307 74 314 65 q 318 61 321 59 q 325 58 344 53 q 367 48 367 26 q 367 14 354 6 q 345 0 324 0 l 307 0 l 89 0 l 77 0 q 59 0 50 7 q 40 13 40 25 q 40 45 60 52 q 76 57 78 58 q 81 60 84 64 q 90 72 90 89 l 90 578 q 90 595 84 603 q 81 607 78 608 q 76 609 60 615 q 40 621 40 641 q 40 653 50 660 q 59 667 77 667 l 89 667 z m 350 667 l 546 667 l 546 496 q 546 479 541 472 q 535 465 521 465 q 512 465 506 470 q 500 475 497 487 q 489 511 478 531 q 466 551 451 565 q 431 585 407 595 q 383 605 350 609 z m 347 311 l 347 368 q 376 381 389 397 q 403 413 409 440 q 413 459 419 466 q 426 473 438 473 q 453 473 459 461 q 462 455 462 432 l 462 246 q 462 223 457 214 q 452 206 438 206 q 427 206 421 212 q 415 219 411 235 q 402 269 387 287 q 372 305 347 311 z"},"`":{"x_min":0,"x_max":500,"ha":500,"o":"m 109 852 l 207 852 q 221 852 226 849 q 231 846 239 833 l 312 720 q 314 716 314 713 q 314 710 310 708 q 306 706 300 706 l 265 706 q 258 706 250 713 l 240 720 l 106 824 q 93 834 94 840 q 94 845 99 848 q 103 852 109 852 z"},"k":{"x_min":0,"x_max":734,"ha":734,"o":"m 317 0 l 100 0 l 87 0 q 69 0 60 7 q 50 13 50 25 q 50 45 70 52 q 86 57 89 58 q 91 60 94 64 q 100 72 100 89 l 100 578 q 100 595 94 603 q 91 607 89 608 q 86 609 70 615 q 50 621 50 641 q 50 653 60 660 q 69 667 87 667 l 100 667 l 317 667 l 330 667 q 348 667 357 660 q 367 653 367 641 q 367 621 347 615 q 331 609 328 608 q 326 607 323 603 q 317 595 317 578 l 317 89 q 317 62 331 57 l 346 52 q 365 46 365 25 q 365 0 330 0 z m 511 473 l 658 87 q 664 72 670 64 q 677 56 687 51 q 697 46 700 44 q 707 37 707 26 q 707 0 670 0 l 425 0 q 407 0 398 7 q 388 15 388 28 q 388 44 406 53 q 417 58 421 62 q 425 65 426 72 q 426 75 422 87 l 359 274 q 351 300 351 318 q 351 335 365 355 l 481 520 q 498 542 498 567 q 498 581 491 593 q 483 604 471 609 l 454 617 q 437 624 437 640 q 437 653 447 661 q 454 667 470 667 l 644 667 q 661 667 670 659 q 680 651 680 638 q 680 617 657 608 l 631 598 q 615 592 590 572 q 572 556 544 520 z"},"u":{"x_min":0,"x_max":677,"ha":677,"o":"m 82 195 l 82 578 q 82 595 76 603 q 73 607 70 608 q 67 609 51 615 q 32 621 32 641 q 32 653 41 660 q 51 667 68 667 l 81 667 l 299 667 l 312 667 l 329 665 q 337 662 343 656 q 348 649 348 641 q 348 621 329 615 q 312 609 310 608 q 307 607 304 603 q 298 595 298 578 l 298 168 q 298 126 301 110 q 303 94 310 81 q 316 68 324 63 q 332 58 354 51 l 354 -13 l 343 -13 q 279 -13 237 -2 q 188 11 151 37 q 114 63 98 95 q 82 129 82 195 z m 398 -13 l 398 51 q 447 57 480 91 q 517 129 517 202 l 517 520 q 517 587 466 613 q 451 621 446 627 q 441 632 441 643 q 441 656 451 661 q 460 667 481 667 l 601 667 q 616 667 621 666 q 626 665 631 662 q 644 655 644 642 q 644 631 636 624 q 633 622 615 611 q 593 599 581 575 q 569 551 569 520 l 569 201 q 569 119 533 66 q 506 27 457 4 q 433 -8 398 -13 z"},"]":{"x_min":0,"x_max":394,"ha":394,"o":"m 110 667 l 300 667 q 311 667 314 664 q 317 661 317 649 l 317 -127 q 317 -139 314 -142 q 311 -145 300 -145 l 110 -145 q 65 -145 54 -135 q 44 -126 44 -111 q 44 -98 51 -91 q 58 -84 75 -81 q 99 -76 109 -72 q 120 -68 127 -61 q 137 -51 141 -37 q 145 -22 145 3 l 145 519 q 145 544 141 559 q 137 573 127 583 q 120 590 109 594 q 99 598 75 603 q 58 606 51 613 q 44 620 44 633 q 44 648 54 657 q 65 667 110 667 z"},"U":{"x_min":0,"x_max":677,"ha":677,"o":"m 82 195 l 82 578 q 82 595 76 603 q 73 607 70 608 q 67 609 51 615 q 32 621 32 641 q 32 653 41 660 q 51 667 68 667 l 81 667 l 299 667 l 312 667 l 329 665 q 337 662 343 656 q 348 649 348 641 q 348 621 329 615 q 312 609 310 608 q 307 607 304 603 q 298 595 298 578 l 298 168 q 298 126 301 110 q 303 94 310 81 q 316 68 324 63 q 332 58 354 51 l 354 -13 l 343 -13 q 279 -13 237 -2 q 188 11 151 37 q 114 63 98 95 q 82 129 82 195 z m 398 -13 l 398 51 q 447 57 480 91 q 517 129 517 202 l 517 520 q 517 587 466 613 q 451 621 446 627 q 441 632 441 643 q 441 656 451 661 q 460 667 481 667 l 601 667 q 616 667 621 666 q 626 665 631 662 q 644 655 644 642 q 644 631 636 624 q 633 622 615 611 q 593 599 581 575 q 569 551 569 520 l 569 201 q 569 119 533 66 q 506 27 457 4 q 433 -8 398 -13 z"},"o":{"x_min":0,"x_max":634,"ha":634,"o":"m 297 627 q 272 618 262 603 q 251 588 251 559 l 251 122 q 251 79 263 62 q 272 47 297 41 l 297 -13 q 188 -4 115 68 q 20 163 20 333 q 20 417 45 486 q 70 555 120 603 q 157 639 201 658 q 244 677 297 680 z m 337 627 l 337 680 q 390 677 433 658 q 477 639 515 603 q 614 505 614 333 q 614 163 519 68 q 446 -5 337 -13 l 337 41 q 350 43 357 48 q 364 53 370 62 q 383 82 383 122 l 383 559 q 383 584 374 600 q 368 610 360 616 q 352 622 337 627 z"},"N":{"x_min":0,"x_max":671,"ha":671,"o":"m 316 667 l 576 215 l 576 0 l 443 0 l 111 571 q 101 590 94 597 q 87 604 76 608 l 58 615 q 50 617 46 624 q 42 630 42 638 q 42 646 46 653 q 50 660 58 663 q 66 667 103 667 z m 112 495 l 164 409 l 164 147 q 164 113 175 91 q 187 69 211 55 l 226 47 q 239 40 239 25 q 239 14 229 6 q 222 0 197 0 l 84 0 q 40 0 40 25 q 40 34 45 39 q 49 44 65 53 q 112 79 112 147 z m 576 293 l 524 381 l 524 516 q 524 557 512 579 q 500 601 470 616 q 460 621 456 627 q 452 632 452 641 q 452 654 461 660 q 469 667 488 667 l 610 667 q 635 667 643 659 q 651 651 651 640 q 651 630 647 625 q 642 620 625 611 q 599 598 585 570 q 576 550 576 516 z"},"+":{"x_min":0,"x_max":575,"ha":575,"o":"m 340 280 l 340 106 q 340 95 336 90 q 332 86 320 86 l 251 86 q 240 86 236 90 q 231 95 231 106 l 231 280 l 58 280 q 46 280 42 285 q 38 289 38 301 l 38 365 q 38 376 42 381 q 46 385 58 385 l 231 385 l 231 562 q 231 573 236 578 q 240 582 251 582 l 320 582 q 332 582 336 578 q 340 573 340 562 l 340 385 l 517 385 q 528 385 533 381 q 537 376 537 365 l 537 301 q 537 289 533 285 q 528 280 517 280 z"},"G":{"x_min":0,"x_max":620,"ha":620,"o":"m 294 680 l 294 625 q 251 615 251 557 l 251 103 q 251 76 259 62 q 265 50 286 42 l 286 -13 q 270 -13 257 -11 q 244 -8 223 -1 q 171 17 130 53 q 88 89 62 139 q 20 218 20 325 q 20 429 57 510 q 94 590 164 636 q 204 663 250 675 q 269 680 294 680 z m 334 626 l 334 679 q 414 672 465 650 q 480 643 489 643 q 497 643 501 647 q 505 650 518 667 q 526 680 540 680 q 553 680 559 672 q 564 665 564 647 l 564 457 q 564 420 537 420 q 523 420 517 427 q 510 435 504 456 q 497 483 478 520 q 459 556 441 577 q 421 602 396 613 q 372 625 334 626 z m 555 82 q 536 62 503 42 q 471 21 442 10 q 416 0 384 -7 q 352 -13 327 -13 l 327 42 q 341 45 348 50 q 355 55 360 64 q 369 79 369 103 l 369 245 q 369 264 361 272 q 358 277 354 279 q 351 280 332 284 q 309 290 309 312 q 309 324 320 331 q 331 338 352 338 l 368 338 l 547 338 q 569 338 578 332 q 587 326 587 311 q 587 301 583 295 q 580 289 570 282 q 560 275 558 270 q 555 264 555 248 z"},"q":{"x_min":0,"x_max":640,"ha":640,"o":"m 508 56 q 526 38 556 38 q 573 38 587 44 q 599 49 604 49 q 610 49 615 43 q 620 36 620 28 q 620 13 597 -4 q 555 -34 510 -34 q 452 -34 417 2 q 384 -10 340 -14 l 340 41 q 351 43 356 46 q 361 48 367 55 l 363 59 q 350 75 342 81 q 333 87 322 89 q 307 92 302 94 q 298 95 295 100 q 291 105 291 114 q 291 127 302 135 q 314 143 334 143 q 350 143 362 140 q 373 137 386 130 l 386 559 q 386 584 377 600 q 371 610 363 616 q 355 622 340 627 l 340 680 q 393 677 436 658 q 480 639 518 603 q 617 505 617 332 q 617 154 508 56 z m 300 627 q 275 618 265 603 q 254 588 254 559 l 254 122 q 254 79 266 62 q 275 47 300 41 l 300 -13 q 191 -4 118 68 q 23 163 23 333 q 23 417 48 486 q 73 555 123 603 q 160 639 204 658 q 247 677 300 680 z"},"d":{"x_min":0,"x_max":648,"ha":648,"o":"m 307 667 l 307 0 l 89 0 l 77 0 q 59 0 50 7 q 40 13 40 25 q 40 45 60 52 q 76 57 78 58 q 81 60 84 64 q 90 72 90 89 l 90 578 q 90 595 84 603 q 81 607 78 608 q 76 609 60 615 q 40 621 40 641 q 40 653 50 660 q 59 667 77 667 l 89 667 z m 405 140 l 405 525 q 405 561 395 582 q 389 595 379 602 q 370 608 350 612 l 350 667 q 376 667 394 665 q 456 658 514 612 q 572 567 600 496 q 628 424 628 336 q 628 236 592 159 q 555 82 487 37 q 454 16 425 8 q 396 0 350 0 l 350 53 q 371 58 379 62 q 387 67 393 76 q 400 87 403 100 q 405 114 405 140 z"},"1":{"x_min":0,"x_max":575,"ha":575,"o":"m 382 667 l 382 93 q 382 74 389 65 q 393 61 396 59 q 400 58 419 53 q 442 48 442 26 q 442 14 430 6 q 420 0 399 0 l 382 0 l 195 0 l 179 0 q 157 0 148 6 q 135 14 135 26 q 135 48 159 53 q 178 58 181 59 q 185 61 188 65 q 195 74 195 93 l 195 550 q 195 575 190 587 q 185 599 174 600 l 157 603 q 134 606 134 626 q 134 642 148 650 q 156 654 179 656 z"},"5":{"x_min":0,"x_max":575,"ha":575,"o":"m 99 513 l 113 675 q 129 673 132 672 l 230 659 q 283 652 355 652 q 404 652 435 657 q 465 662 498 675 q 488 641 476 620 q 463 598 441 576 q 418 553 389 536 q 361 520 333 513 q 290 503 221 503 q 159 503 99 513 z m 96 476 l 141 471 l 132 370 q 161 394 184 406 q 206 418 233 425 l 233 356 q 181 344 146 322 q 122 308 111 308 q 98 308 91 315 q 83 322 83 334 q 83 340 83 348 z m 274 356 l 274 427 q 325 427 359 419 q 393 411 424 393 q 522 335 522 214 q 522 156 500 109 q 478 63 436 34 q 407 15 368 3 q 330 -8 291 -8 l 276 -8 l 276 47 q 291 52 300 59 q 309 67 315 81 q 319 88 322 106 q 324 124 324 140 l 324 265 q 324 308 314 326 q 304 345 274 356 z m 233 47 l 233 -7 q 182 -3 138 20 q 97 41 74 72 q 52 103 52 140 q 52 182 79 210 q 106 239 147 239 q 183 239 208 213 q 234 188 234 153 q 234 134 224 114 q 214 93 200 83 q 189 74 189 69 q 189 61 201 55 q 212 49 233 47 z"}}}
